<svg width="16" height="16" viewBox="0 0 16 16" fill="none" xmlns="http://www.w3.org/2000/svg" class="Hawkins-Icon Hawkins-Icon-Small"><path fill-rule="evenodd" clip-rule="evenodd" d="M8,14.5c0.23033,0 0.84266,-0.2257 1.48679,-1.514c0.27614,-0.5523 0.51294,-1.2239 0.68801,-1.986h-4.3496c0.17507,0.7621 0.41187,1.4337 0.68801,1.986c0.64413,1.2883 1.25646,1.514 1.48679,1.514zM10.4224,9.5c0.0504,-0.47923 0.0776,-0.98089 0.0776,-1.5c0,-0.51911 -0.0272,-1.02077 -0.0776,-1.5h-4.84478c-0.05046,0.47923 -0.07762,0.98089 -0.07762,1.5c0,0.51911 0.02716,1.02077 0.07762,1.5zM11.7092,11c-0.227,1.1217 -0.5775,2.117 -1.0178,2.9184c1.3223,-0.6023 2.4073,-1.6347 3.0764,-2.9184zM14.5,8c0,-0.51627 -0.0602,-1.01848 -0.1739,-1.5h-2.3963c0.0461,0.48588 0.0702,0.98731 0.0702,1.5c0,0.51269 -0.0241,1.01412 -0.0702,1.5h2.3963c0.1137,-0.48152 0.1739,-0.98373 0.1739,-1.5zM4,8c0,-0.51269 0.02411,-1.01412 0.0702,-1.5h-2.39627c-0.11374,0.48152 -0.17393,0.98373 -0.17393,1.5c0,0.51627 0.06019,1.01848 0.17393,1.5h2.39627c-0.04609,-0.48588 -0.0702,-0.98731 -0.0702,-1.5zM5.30864,13.9184c-0.44032,-0.8014 -0.79085,-1.7967 -1.01788,-2.9184h-2.05855c0.66907,1.2837 1.75414,2.3161 3.07643,2.9184zM5.8252,5h4.3496c-0.17507,-0.76207 -0.41187,-1.43374 -0.68801,-1.98603c-0.64413,-1.28826 -1.25646,-1.51397 -1.48679,-1.51397c-0.23033,0 -0.84266,0.22571 -1.48679,1.51397c-0.27614,0.55229 -0.51294,1.22396 -0.68801,1.98603zM11.7092,5h2.0586c-0.6691,-1.28373 -1.7541,-2.31611 -3.0764,-2.91838c0.4403,0.8014 0.7908,1.79668 1.0178,2.91838zM2.23221,5h2.05855c0.22703,-1.1217 0.57756,-2.11698 1.01788,-2.91838c-1.32229,0.60227 -2.40736,1.63466 -3.07643,2.91838zM8,0c4.4183,0 8,3.58172 8,8c0,4.4183 -3.5817,8 -8,8c-4.41828,0 -8,-3.5817 -8,-8c0,-4.41828 3.58172,-8 8,-8z" fill="currentColor"/></svg>